<svg version="1.1" id="Слой_1" xmlns="http://www.w3.org/2000/svg" xmlns:xlink="http://www.w3.org/1999/xlink" x="0" y="0" viewBox="0 0 58 64" xml:space="preserve"><style>.st3,.st4{clip-path:url(#SVGID_2_);fill:none;stroke-width:2;stroke-miterlimit:10}.st3{stroke-linecap:round;stroke-linejoin:round;stroke:#00698b}.st4{stroke:#bcc0c4}</style><defs><path id="SVGID_1_" d="M0 0H58V64H0z"/></defs><clipPath id="SVGID_2_"><use xlink:href="#SVGID_1_" overflow="visible"/></clipPath><path d="M52,26c0,14.4-11.6,26-26,26S0,40.4,0,26S11.6,0,26,0S52,11.6,52,26" clip-path="url(#SVGID_2_)" fill="#f2f2f2"/><path d="M35,63c1.2-0.3,22-12.5,22-23.5V15.9c-5.6,0-18.5-6.2-22-9.9c-3.5,3.7-16.4,9.9-22,9.9v23.5 C13,50.5,33.8,62.7,35,63L35,63z" clip-path="url(#SVGID_2_)" fill="#fff"/><path d="M35,6c-3.5,3.7-16.4,9.9-22,9.9v23.6C13,50.5,33.8,62.7,35,63h0c1.2-0.3,22-12.5,22-23.5V15.9 C51.4,15.9,38.5,9.7,35,6 M52,38.3c0,8.6-16,17.9-17,18.2h0c-0.9-0.3-17-9.6-17-18.2V20.1c4.3,0,14.3-4.8,17-7.7 c2.7,2.9,12.7,7.7,17,7.7V38.3z" clip-path="url(#SVGID_2_)" fill="#a2e8ff"/><path class="st3" d="M35,63c1.2-0.3,22-12.5,22-23.5V15.9c-5.6,0-18.5-6.2-22-9.9c-3.5,3.7-16.4,9.9-22,9.9v23.5 C13,50.5,33.8,62.7,35,63L35,63z"/><path class="st3" d="M47.5,47.1c2.6-2.8,4.5-5.8,4.5-8.8V20.1c-4.3,0-14.3-4.8-17-7.7c-1,1-2.9,2.3-5.2,3.5"/><path class="st3" d="M24.4,18.6c-2.5,0.9-4.8,1.6-6.4,1.6v18.2c0,8.6,16,17.9,17,18.2h0c0.4-0.1,3.6-1.9,7.2-4.6"/><path class="st4" d="M10 52L10 54"/><path class="st4" d="M10 56L10 58"/><path class="st4" d="M9 55L7 55"/><path class="st4" d="M13 55L11 55"/><path class="st4" d="M54 4L54 6"/><path class="st4" d="M54 8L54 10"/><path class="st4" d="M53 7L51 7"/><path class="st4" d="M57 7L55 7"/><path class="st4" d="M10 9L8 11"/><path class="st4" d="M15 4L13 6"/><path class="st4" d="M13 9L15 11"/><path class="st4" d="M8 4L10 6"/></svg>