<svg version="1.1" id="Слой_1" xmlns="http://www.w3.org/2000/svg" xmlns:xlink="http://www.w3.org/1999/xlink" x="0" y="0" viewBox="0 0 63 62" xml:space="preserve"><style>.st0{fill:#f2f2f2}.st0,.st2,.st3{clip-path:url(#SVGID_2_)}.st2{stroke:#00698b;stroke-width:2;stroke-miterlimit:10;fill:none}.st3{fill:#a2e8ff}</style><defs><path id="SVGID_1_" d="M0 0H63V62H0z"/></defs><clipPath id="SVGID_2_"><use xlink:href="#SVGID_1_" overflow="visible"/></clipPath><path class="st0" d="M55,26.5C55,41.1,43.1,53,28.5,53C13.9,53,2,36.9,2,26.5C2,11.9,13.9,0,28.5,0C43.1,0,55,11.9,55,26.5"/><path d="M58,9H27c-2.2,0-4,1.8-4,4v30h35c2.2,0,4-1.8,4-4V13C62,10.8,60.2,9,58,9" clip-path="url(#SVGID_2_)" fill="#fff"/><path class="st2" d="M23,26V13c0-2.2,1.8-4,4-4h31c2.2,0,4,1.8,4,4v26c0,2.2-1.8,4-4,4H30"/><path class="st0" d="M30 20L30 36 30 37 38 37 38 20z"/><path class="st2" d="M30 26L30 20 38 20 38 37 30 37 30 36"/><path class="st0" d="M38 27H46V37H38z"/><path class="st2" d="M38 27H46V37H38z"/><path class="st3" d="M46 16H54V37H46z"/><path class="st2" d="M46 16H54V37H46z"/><path class="st2" d="M11.5,25.8c2.6,0,4.5-2.1,4.5-4.7v-1.6c0-2.6-1.9-4.7-4.5-4.7S7,16.9,7,19.5V21C7,23.6,8.9,25.8,11.5,25.8z"/><path class="st3" d="M32,29H9c-4.7,0-8,1.5-8,6v9c0,2.1,1.9,4,4,4h13V34h9C30,34,32,31.2,32,29"/><path class="st2" d="M32,29H9c-4.7,0-8,1.5-8,6v9c0,2.1,1.9,4,4,4h13V34h9C30,34,32,31.2,32,29z"/><path class="st3" d="M6 35H18V62H6z"/><path class="st2" d="M18 35L18 62"/><path class="st2" d="M12 46L12 62"/><path class="st2" d="M6 35L6 62"/><path class="st2" d="M24 43L22 43"/><path class="st2" d="M26 43L28 43"/></svg>