<svg xmlns="http://www.w3.org/2000/svg" viewBox="0 0 63.52 62"><defs><style>.cls-10,.cls-5,.cls-6,.cls-8{fill:none}.cls-5,.cls-6,.cls-8{stroke:#00698b}.cls-5,.cls-6{stroke-linejoin:round}.cls-10,.cls-5,.cls-6,.cls-8{stroke-width:2px}.cls-6{stroke-linecap:round}.cls-10,.cls-8{stroke-miterlimit:10}.cls-10{stroke:#bcc0c4}</style><clipPath id="clip-path"><path fill="none" d="M0 0H63.52V62H0z"/></clipPath></defs><g id="Слой_2" data-name="Слой 2"><g clip-path="url(#clip-path)" id="Слой_1-2" data-name="Слой 1"><path d="M61.76,30a30,30,0,1,1-30-30,30,30,0,0,1,30,30" fill="#f2f2f2"/><path fill="#e9eaeb" d="M62.52 25.13L22.21 46.27 1 35.14 41.3 14 62.52 25.13z"/><path class="cls-5" d="M62.52 25.13L22.21 46.27 1 35.14 41.3 14 62.52 25.13z"/><path class="cls-6" d="M62.52 30.04L22.21 51.18 1 40.05"/><path class="cls-6" d="M62.52 34.95L22.21 56.09 1 44.96"/><path class="cls-6" d="M62.52 39.86L22.21 61 1 49.87"/><path d="M51.2,24.39l-8.49-4.45a4.67,4.67,0,0,1-4.24,0L12.3,33.67c1.41.74,1.18,1.6,0,2.22l8.49,4.45a4.64,4.64,0,0,1,4.23,0L51.2,26.61c-1.17-.62-1.41-1.48,0-2.23" fill="#fff"/><path class="cls-8" d="M51.2,24.39l-8.49-4.45a4.67,4.67,0,0,1-4.24,0L12.3,33.67c1.41.74,1.18,1.6,0,2.22l8.49,4.45a4.64,4.64,0,0,1,4.23,0L51.2,26.61C50,26,49.79,25.13,51.2,24.39Z"/><path class="cls-8" d="M41.76 24L41.76 26"/><path class="cls-8" d="M21.76 34L21.76 36"/><path fill="#a2e8ff" d="M36.76 38.45L14.76 26 24.76 21 47.76 32.97 47.76 49 36.76 54.92 36.76 38.45z"/><path class="cls-5" d="M36.76 38.45L14.76 26 24.76 21 47.76 32.97 47.76 49 36.76 54.92 36.76 38.45z"/><path class="cls-10" d="M15.76 14L15.76 20"/><path class="cls-10" d="M18.76 17L12.76 17"/><path class="cls-10" d="M23.76 3L23.76 9"/><path class="cls-10" d="M26.76 6L20.76 6"/></g></g></svg>