<svg xmlns="http://www.w3.org/2000/svg" viewBox="0 0 62 62"><defs><style>.cls-10,.cls-4,.cls-7{fill:none}.cls-4{stroke:#bcc0c4}.cls-10,.cls-4{stroke-miterlimit:10}.cls-10,.cls-4,.cls-7{stroke-width:2px}.cls-6{fill:#a2e8ff}.cls-10,.cls-7{stroke:#00698b;stroke-linecap:round}.cls-7{stroke-linejoin:round}</style><clipPath id="clip-path"><path fill="none" d="M0 0H62V62H0z"/></clipPath></defs><g id="Слой_2" data-name="Слой 2"><g clip-path="url(#clip-path)" id="Слой_1-2" data-name="Слой 1"><path d="M62,29A29,29,0,1,1,33,0,29,29,0,0,1,62,29" fill="#f2f2f2"/><path class="cls-4" d="M45 12L43 14"/><path class="cls-4" d="M50 7L48 9"/><path class="cls-4" d="M48 12L50 14"/><path class="cls-4" d="M43 7L45 9"/><path class="cls-4" d="M56 32L56 34"/><path class="cls-4" d="M56 36L56 38"/><path class="cls-4" d="M55 35L53 35"/><path class="cls-4" d="M59 35L57 35"/><path class="cls-4" d="M50 41L50 43"/><path class="cls-4" d="M50 45L50 47"/><path class="cls-4" d="M49 44L47 44"/><path class="cls-4" d="M53 44L51 44"/><path fill="#fff" d="M9 9L1 17 1 61 38 61 38 9 9 9z"/><path class="cls-6" d="M1 18L10 18 10 9 9 9 1 17 1 18z"/><path class="cls-7" d="M38 28L38 9 9 9 1 17 1 61 38 61 38 49"/><path class="cls-7" d="M5 18L10 18 10 13"/><path class="cls-6" d="M53.64,28.2,29.26,52.58l-6.16,1.23,1.23-6.16L48.71,23.27a1.23,1.23,0,0,1,1.74,0l3.19,3.19a1.23,1.23,0,0,1,0,1.74"/><path d="M53.64,28.2,29.26,52.58l-6.16,1.23,1.23-6.16L48.71,23.27a1.23,1.23,0,0,1,1.74,0l3.19,3.19A1.23,1.23,0,0,1,53.64,28.2Z" stroke-linejoin="round" stroke="#00698b" stroke-width="2" fill="none"/><path stroke="#00698b" stroke-width="2" stroke-miterlimit="10" fill="none" d="M45.88 26.09L50.81 31.02"/><path class="cls-7" d="M20 54L11 54"/><circle class="cls-10" cx="14" cy="28" r="3"/><path class="cls-10" d="M24,39h0a3,3,0,1,1,3-3A3,3,0,0,1,24,39Z"/><path class="cls-10" d="M13 39L25 25"/></g></g></svg>