<svg xmlns="http://www.w3.org/2000/svg" viewBox="0 0 61 59"><defs><style>.cls-4,.cls-5,.cls-7{fill:none;stroke:#00698b;stroke-width:2px}.cls-4{stroke-linejoin:round}.cls-5{stroke-linecap:round}.cls-5,.cls-7{stroke-miterlimit:10}</style></defs><g id="Слой_2" data-name="Слой 2"><g id="icons"><circle cx="22" cy="22" r="22" fill="#f2f2f2"/><path d="M52,6H25a2,2,0,0,0-2,2V56a2,2,0,0,0,2,2H58a2,2,0,0,0,2-2V14Z" fill="#fff"/><path fill="#a2e8ff" d="M52 6L51 6 51 15 60 15 60 14 52 6z"/><path class="cls-4" d="M23,18V8a2,2,0,0,1,2-2H52l8,8V56a2,2,0,0,1-2,2H25a2,2,0,0,1-2-2V53"/><path class="cls-4" d="M57 15L51 15 51 9"/><circle class="cls-5" cx="41.5" cy="32.5" r="3.5"/><path class="cls-5" d="M52.5,45h0A3.5,3.5,0,0,1,49,41.5h0A3.5,3.5,0,0,1,52.5,38h0A3.5,3.5,0,0,1,56,41.5h0A3.5,3.5,0,0,1,52.5,45Z"/><path class="cls-5" d="M40 45L54 29"/><path d="M21.87,42.61c-6,0-10.92-4.43-11-9.87a.53.53,0,0,1,.15-.38.51.51,0,0,1,.37-.16h9a.56.56,0,0,0,.55-.56v-8.5a.52.52,0,0,1,.5-.52h.4c6.07,0,11,4.49,11,10S27.93,42.61,21.87,42.61Z" stroke-miterlimit="10" stroke="#00698b" stroke-width="2" fill="#a2e8ff"/><path class="cls-7" d="M11,33s-3-1-4.08-1.24c-.49-.11-1.3-.44-1.31-1.26,0-1.16,1.87-1.72,2.42-1.72a2.69,2.69,0,0,1,2.46,2c.16.54.32,1.27.5,2.23"/><circle class="cls-7" cx="15.49" cy="45.95" r="2"/><circle class="cls-7" cx="28.12" cy="45.95" r="2"/></g></g></svg>