<svg xmlns="http://www.w3.org/2000/svg" viewBox="0 0 64 62.01"><defs><style>.cls-5,.cls-6,.cls-9{fill:none}.cls-4{fill:#fff}.cls-5,.cls-6,.cls-9{stroke:#bcc0c4;stroke-miterlimit:10;stroke-width:2px}.cls-6,.cls-9{stroke:#00698b}.cls-9{stroke-linecap:round}</style><clipPath id="clip-path"><path fill="none" d="M0 0H64V62.01H0z"/></clipPath></defs><g id="Слой_2" data-name="Слой 2"><g clip-path="url(#clip-path)" id="Слой_1-2" data-name="Слой 1"><path d="M14,19A19,19,0,1,0,33,0,19,19,0,0,0,14,19" fill="#f2f2f2"/><path class="cls-4" d="M48 54.01L48 36.01 30 18.01 12 36.01 12 54.01 48 54.01z"/><path class="cls-5" d="M0,5H4A4,4,0,0,1,7.63,3.16,4.19,4.19,0,0,1,11.19,1a4.24,4.24,0,0,1,4.13,4H25"/><path class="cls-4" d="M15 11.01L15 23.01 21 17.01 21 11.01 15 11.01z"/><path class="cls-6" d="M15 11.01L15 23.01 21 17.01 21 11.01 15 11.01z"/><path class="cls-6" d="M12 54.01L12 36.01"/><path fill="#a2e8ff" d="M30 8.01L4 34.01 9 39.01 30 18.01 51 39.01 56 34.01 30 8.01z"/><path stroke-linejoin="round" stroke="#00698b" stroke-width="2" fill="none" d="M30 8.01L4 34.01 9 39.01 30 18.01 51 39.01 56 34.01 30 8.01z"/><path class="cls-6" d="M19 40.01H27V54.01H19z"/><path class="cls-9" d="M6 54.01L30 54.01"/><circle class="cls-9" cx="36" cy="47.01" r="4"/><path class="cls-9" d="M48,61h0a4,4,0,1,1,4-4A4,4,0,0,1,48,61Z"/><path class="cls-9" d="M34 61.01L50 43.01"/><circle class="cls-9" cx="30" cy="28.01" r="3"/><path class="cls-5" d="M64,12H58.17a3,3,0,0,0-2.68-1.83,2.87,2.87,0,0,0-1.08.18A4.73,4.73,0,0,0,50,7.28,5.18,5.18,0,0,0,45.25,12H40"/></g></g></svg>