<?xml version="1.0" encoding="utf-8"?>
<!-- Generator: Adobe Illustrator 18.1.1, SVG Export Plug-In . SVG Version: 6.00 Build 0)  -->
<svg version="1.1" id="support" xmlns="http://www.w3.org/2000/svg" xmlns:xlink="http://www.w3.org/1999/xlink" x="0px" y="0px"
	 viewBox="0 0 126 126" enable-background="new 0 0 126 126" xml:space="preserve">
<g class="main_1">
<path fill="none" stroke="#19B26B" stroke-width="2" stroke-miterlimit="10" d="M85,51.5V27c0-4.4-3.6-8-8-8H55c-3.3,0-6,2.7-6,6v0
	h-2c-3.3,0-6,2.7-6,6v-0.2v22.3l2,2l-2-2l2,2c0,9.5,6,24,20,24s20-13.2,20-23.9l2-2V51.5z"/>
<path fill="none" stroke="#19B26B" stroke-width="2" stroke-miterlimit="10" d="M85,47h-2c-2.2,0-4-1.8-4-4v-2v1.7V39
	c0-2.2-1.8-4-4-4v-2.5V35v-4l-8,4H51c-2.2,0-4,1.8-4,4v2l0-1v3c0,2.2-1.8,4-4,4h-2"/>
</g>
<path fill="none" stroke="#19B26B" stroke-width="2" stroke-miterlimit="10" d="M11.1,96.9C4.7,87.2,1,75.5,1,63C1,28.8,28.8,1,63,1
	s62,27.8,62,62c0,12.5-3.7,24.2-10.1,33.9"/>
<polyline fill="none" stroke="#19B26B" stroke-width="2" stroke-miterlimit="10" points="125,95 114.9,96.9 113,87 "/>
<polyline fill="none" stroke="#19B26B" stroke-width="2" stroke-miterlimit="10" points="1,95 11.1,96.9 13,87 "/>
<line fill="none" stroke="#19B26B" stroke-width="2" stroke-miterlimit="10" x1="75" y1="75" x2="75" y2="88"/>
<line fill="none" stroke="#19B26B" stroke-width="2" stroke-miterlimit="10" x1="51" y1="75" x2="51" y2="88"/>
<path fill="none" stroke="#19B26B" stroke-width="2" stroke-miterlimit="10" d="M88.8,95l-17.9,8L63,95v-4l15.8-4L88.8,95L88.8,95
	c8,2.5,15.8,5.7,18.4,11.7C95.9,117.9,80.1,125,63,125c-17.4,0-33.1-7.2-44.4-18.7l0,0c2.6-6,10.3-8.8,18.4-11.3l0,0l10-8l16,4v4
	l-8,8l-18-8"/>

<rect x="62" y="106.1" fill="none" stroke="#19B26B" stroke-width="2" stroke-miterlimit="10" width="2" height="2"/>
<rect x="62" y="114" fill="none" stroke="#19B26B" stroke-width="2" stroke-miterlimit="10" width="2" height="2"/>
</svg>
