<?xml version="1.0" encoding="utf-8"?>
<!-- Generator: Adobe Illustrator 18.1.1, SVG Export Plug-In . SVG Version: 6.00 Build 0)  -->
<svg version="1.1" id="development" xmlns="http://www.w3.org/2000/svg" xmlns:xlink="http://www.w3.org/1999/xlink" x="0px" y="0px"
	 viewBox="0 0 126 126" enable-background="new 0 0 126 126" xml:space="preserve">
<g>
	<path fill="none" stroke="#19B26B" stroke-width="2" stroke-miterlimit="10" d="M67,86H4c-1.6,0-3-1.3-3-3V9c0-1.7,1.4-3,3-3h94
		c1.7,0,3,1.3,3,3v19"/>
</g>
<line fill="none" stroke="#19B26B" stroke-width="2" stroke-miterlimit="10" x1="1" y1="70" x2="67" y2="70"/>
<line fill="none" stroke="#19B26B" stroke-width="2" stroke-miterlimit="10" x1="12" y1="59" x2="36" y2="59"/>
<line fill="none" stroke="#19B26B" stroke-width="2" stroke-miterlimit="10" x1="12" y1="51" x2="36" y2="51"/>
<line fill="none" stroke="#19B26B" stroke-width="2" stroke-miterlimit="10" x1="12" y1="43" x2="36" y2="43"/>
<line fill="none" stroke="#19B26B" stroke-width="2" stroke-miterlimit="10" x1="43" y1="43" x2="67" y2="43"/>
<line fill="none" stroke="#19B26B" stroke-width="2" stroke-miterlimit="10" x1="43" y1="51" x2="67" y2="51"/>
<line fill="none" stroke="#19B26B" stroke-width="2" stroke-miterlimit="10" x1="43" y1="59" x2="67" y2="59"/>
<polyline fill="none" stroke="#19B26B" stroke-width="2" stroke-miterlimit="10" points="67,34 13,34 13,18 89,18 89,28 "/>
<g>
	<path fill="none" stroke="#19B26B" stroke-width="2" stroke-miterlimit="10" d="M125,104c0,1.1-0.9,2-2,2H75c-1.1,0-2-0.9-2-2V36
		c0-1.1,0.9-2,2-2h48c1.1,0,2,0.9,2,2V104z"/>
</g>
<rect x="85" y="43" fill="none" stroke="#19B26B" stroke-width="2" stroke-miterlimit="10" width="28" height="10"/>
<line fill="none" stroke="#19B26B" stroke-width="2" stroke-miterlimit="10" x1="84" y1="62" x2="114" y2="62"/>
<line fill="none" stroke="#19B26B" stroke-width="2" stroke-miterlimit="10" x1="84" y1="70" x2="114" y2="70"/>
<line fill="none" stroke="#19B26B" stroke-width="2" stroke-miterlimit="10" x1="84" y1="78" x2="114" y2="78"/>
<line fill="none" stroke="#19B26B" stroke-width="2" stroke-miterlimit="10" x1="84" y1="86" x2="114" y2="86"/>
<line fill="none" stroke="#19B26B" stroke-width="2" stroke-miterlimit="10" x1="95" y1="99" x2="103" y2="99"/>
<line fill="none" stroke="#19B26B" stroke-width="2" stroke-miterlimit="10" x1="41" y1="86" x2="41" y2="108"/>
<line fill="none" stroke="#19B26B" stroke-width="2" stroke-miterlimit="10" x1="61" y1="86" x2="61" y2="108"/>
<line fill="none" stroke="#19B26B" stroke-width="2" stroke-miterlimit="10" x1="35" y1="107" x2="67" y2="107"/>
<line fill="none" stroke="#19B26B" stroke-width="2" stroke-miterlimit="10" x1="0" y1="107" x2="30" y2="107"/>
<line fill="none" stroke="#19B26B" stroke-width="2" stroke-miterlimit="10" x1="0" y1="115" x2="126" y2="115"/>
<line fill="none" stroke="#19B26B" stroke-width="2" stroke-miterlimit="10" x1="109" y1="114" x2="109" y2="126"/>
<line fill="none" stroke="#19B26B" stroke-width="2" stroke-miterlimit="10" x1="97" y1="114" x2="97" y2="126"/>
<line fill="none" stroke="#19B26B" stroke-width="2" stroke-miterlimit="10" x1="29" y1="114" x2="29" y2="126"/>
<line fill="none" stroke="#19B26B" stroke-width="2" stroke-miterlimit="10" x1="17" y1="114" x2="17" y2="126"/>
<rect x="50" y="77" fill="none" stroke="#19B26B" stroke-width="2" stroke-miterlimit="10" width="2" height="2"/>

<g class="dots">
	<rect x="20" y="25" fill="none" stroke="#19B26B" stroke-width="2" stroke-miterlimit="10" width="2" height="2"/>
	<rect x="28" y="25" fill="none" stroke="#19B26B" stroke-width="2" stroke-miterlimit="10" width="2" height="2"/>
	<rect x="36" y="25" fill="none" stroke="#19B26B" stroke-width="2" stroke-miterlimit="10" width="2" height="2"/>
	<rect x="44" y="25" fill="none" stroke="#19B26B" stroke-width="2" stroke-miterlimit="10" width="2" height="2"/>
	<rect x="52" y="25" fill="none" stroke="#19B26B" stroke-width="2" stroke-miterlimit="10" width="2" height="2"/>
</g>

</svg>
