<?xml version="1.0" encoding="utf-8"?>
<!-- Generator: Adobe Illustrator 18.1.1, SVG Export Plug-In . SVG Version: 6.00 Build 0)  -->
<svg version="1.1" id="projecting" xmlns="http://www.w3.org/2000/svg" xmlns:xlink="http://www.w3.org/1999/xlink" x="0px" y="0px"
	 viewBox="0 0 126 126" enable-background="new 0 0 126 126" xml:space="preserve" shape-rendering="geometricPrecision">
<g>
		<path fill="none" stroke="#19B26B" stroke-width="2" stroke-miterlimit="10" d="M63,94c-17.1,0-31-13.9-31-31s13.9-31,31-31
				c17.1,0,31,13.9,31,31S80.1,94,63,94z"/>
		
			<line fill="none" stroke="#19B26B" stroke-width="2" stroke-miterlimit="10" x1="29" y1="29" x2="97" y2="97"/>	
			<line fill="none" stroke="#19B26B" stroke-width="2" stroke-miterlimit="10" x1="97" y1="29" x2="29.5" y2="96.5"/>
			<polyline fill="none" stroke="#19B26B" stroke-width="2" stroke-miterlimit="10" points="47,29 29,29 29,47 	"/>
			<polyline fill="none" stroke="#19B26B" stroke-width="2" stroke-miterlimit="10" points="29,79 29,97 47,97 	"/>
			<polyline fill="none" stroke="#19B26B" stroke-width="2" stroke-miterlimit="10" points="79,97 97,97 97,79 	"/>
			<polyline fill="none" stroke="#19B26B" stroke-width="2" stroke-miterlimit="10" points="79,29 97,29 97,47 	"/>
				
		
	<g class="dotten">
		<rect x="44" y="62" fill="none" stroke="#19B26B" stroke-width="2" stroke-miterlimit="10" width="2" height="2"/>
		<rect x="62" y="44" fill="none" stroke="#19B26B" stroke-width="2" stroke-miterlimit="10" width="2" height="2"/>
		<rect x="80" y="62" fill="none" stroke="#19B26B" stroke-width="2" stroke-miterlimit="10" width="2" height="2"/>
		<rect x="62" y="80" fill="none" stroke="#19B26B" stroke-width="2" stroke-miterlimit="10" width="2" height="2"/>
	</g>

	<rect x="1" y="1" fill="none" stroke="#19B26B" stroke-width="2" stroke-miterlimit="10" width="16" height="16"/>
	<rect x="109" y="1" fill="none" stroke="#19B26B" stroke-width="2" stroke-miterlimit="10" width="16" height="16"/>
	<rect x="1" y="109" fill="none" stroke="#19B26B" stroke-width="2" stroke-miterlimit="10" width="16" height="16"/>
	<rect x="109" y="109" fill="none" stroke="#19B26B" stroke-width="2" stroke-miterlimit="10" width="16" height="16"/>
	<line fill="none" stroke="#19B26B" stroke-width="2" stroke-miterlimit="10" x1="117" y1="95" x2="117" y2="103"/>
	<line fill="none" stroke="#19B26B" stroke-width="2" stroke-miterlimit="10" x1="117" y1="91" x2="117" y2="83"/>
	<line fill="none" stroke="#19B26B" stroke-width="2" stroke-miterlimit="10" x1="117" y1="79" x2="117" y2="71"/>
	<line fill="none" stroke="#19B26B" stroke-width="2" stroke-miterlimit="10" x1="117" y1="67" x2="117" y2="59"/>
	<line fill="none" stroke="#19B26B" stroke-width="2" stroke-miterlimit="10" x1="117" y1="55" x2="117" y2="47"/>
	<line fill="none" stroke="#19B26B" stroke-width="2" stroke-miterlimit="10" x1="117" y1="43" x2="117" y2="35"/>
	<line fill="none" stroke="#19B26B" stroke-width="2" stroke-miterlimit="10" x1="117" y1="31" x2="117" y2="23"/>
	<line fill="none" stroke="#19B26B" stroke-width="2" stroke-miterlimit="10" x1="9" y1="95" x2="9" y2="103"/>
	<line fill="none" stroke="#19B26B" stroke-width="2" stroke-miterlimit="10" x1="9" y1="91" x2="9" y2="83"/>
	<line fill="none" stroke="#19B26B" stroke-width="2" stroke-miterlimit="10" x1="9" y1="79" x2="9" y2="71"/>
	<line fill="none" stroke="#19B26B" stroke-width="2" stroke-miterlimit="10" x1="9" y1="67" x2="9" y2="59"/>
	<line fill="none" stroke="#19B26B" stroke-width="2" stroke-miterlimit="10" x1="9" y1="55" x2="9" y2="47"/>
	<line fill="none" stroke="#19B26B" stroke-width="2" stroke-miterlimit="10" x1="9" y1="43" x2="9" y2="35"/>
	<line fill="none" stroke="#19B26B" stroke-width="2" stroke-miterlimit="10" x1="9" y1="31" x2="9" y2="23"/>
	<line fill="none" stroke="#19B26B" stroke-width="2" stroke-miterlimit="10" x1="103" y1="9" x2="95" y2="9"/>
	<line fill="none" stroke="#19B26B" stroke-width="2" stroke-miterlimit="10" x1="91" y1="9" x2="83" y2="9"/>
	<line fill="none" stroke="#19B26B" stroke-width="2" stroke-miterlimit="10" x1="79" y1="9" x2="71" y2="9"/>
	<line fill="none" stroke="#19B26B" stroke-width="2" stroke-miterlimit="10" x1="67" y1="9" x2="59" y2="9"/>
	<line fill="none" stroke="#19B26B" stroke-width="2" stroke-miterlimit="10" x1="55" y1="9" x2="47" y2="9"/>
	<line fill="none" stroke="#19B26B" stroke-width="2" stroke-miterlimit="10" x1="43" y1="9" x2="35" y2="9"/>
	<line fill="none" stroke="#19B26B" stroke-width="2" stroke-miterlimit="10" x1="31" y1="9" x2="23" y2="9"/>
	<line fill="none" stroke="#19B26B" stroke-width="2" stroke-miterlimit="10" x1="103" y1="117" x2="95" y2="117"/>
	<line fill="none" stroke="#19B26B" stroke-width="2" stroke-miterlimit="10" x1="91" y1="117" x2="83" y2="117"/>
	<line fill="none" stroke="#19B26B" stroke-width="2" stroke-miterlimit="10" x1="79" y1="117" x2="71" y2="117"/>
	<line fill="none" stroke="#19B26B" stroke-width="2" stroke-miterlimit="10" x1="67" y1="117" x2="59" y2="117"/>
	<line fill="none" stroke="#19B26B" stroke-width="2" stroke-miterlimit="10" x1="55" y1="117" x2="47" y2="117"/>
	<line fill="none" stroke="#19B26B" stroke-width="2" stroke-miterlimit="10" x1="43" y1="117" x2="35" y2="117"/>
	<line fill="none" stroke="#19B26B" stroke-width="2" stroke-miterlimit="10" x1="31" y1="117" x2="23" y2="117"/>
</g>
</svg>
