<svg id="Слой_1" data-name="Слой 1" xmlns="http://www.w3.org/2000/svg" viewBox="0 0 170 53.6"><defs><style>.cls-2{fill:#46c8f5}</style><clipPath id="clip-path"><path fill="none" d="M0 0H170V53.6H0z"/></clipPath></defs><path class="cls-2" d="M0 37.21L10.01 37.21 34.47 8.05 39.59 14.17 41.31 12.12 31.19 0.04 0 37.21z"/><path class="cls-2" d="M56.08 0L24.86 37.21 34.86 37.21 59.36 8.01 66.68 16.74 70.11 16.74 56.08 0z"/><path fill-rule="evenodd" fill="#46c8f5" d="M4.65 9.9L15.44 9.9 15.44 13.33 4.65 26.18 4.65 9.9z"/><g clip-path="url(#clip-path)"><path d="M62,27h-2.5v10.2h2.22V30.48h.14l2.36,3.88h1.19l2.36-3.88h.14v6.73h2.24V27H67.66l-2.83,4.63Zm16.62,0H76.08L71.89,37.21h2.48l.76-2H79.5l.78,2H82.8Zm-2.71,6.18,1.37-3.88h.15l1.35,3.88ZM92.28,27H84.57v10.2h2.28V29.08h5.43Zm6.62,0H96.39L92.21,37.21h2.48l.76-2h4.37l.78,2h2.53ZM96.2,33.18l1.37-3.88h.15l1.35,3.88ZM109.1,31h-2.33v2h2.57q1.38,0,1.38,1.07a1.17,1.17,0,0,1-.5,1,2.48,2.48,0,0,1-1.5.37,5.52,5.52,0,0,1-1.74-.26,5.19,5.19,0,0,1-1.58-.88l-1.2,1.67a6.2,6.2,0,0,0,1,.69,5.88,5.88,0,0,0,1,.46,6,6,0,0,0,1.13.27,9,9,0,0,0,1.26.08,6.55,6.55,0,0,0,1.94-.26,4.22,4.22,0,0,0,1.39-.7,2.88,2.88,0,0,0,.84-1.05,3.12,3.12,0,0,0,.28-1.32,2.45,2.45,0,0,0-.41-1.44,2.2,2.2,0,0,0-1.14-.83v-.14a2,2,0,0,0,.8-.83,2.56,2.56,0,0,0,.27-1.18,2.53,2.53,0,0,0-.27-1.16,2.61,2.61,0,0,0-.77-.91,3.78,3.78,0,0,0-1.22-.59,5.71,5.71,0,0,0-1.63-.21,6.41,6.41,0,0,0-2.17.35,5.8,5.8,0,0,0-1.83,1.08l1.19,1.57a4.31,4.31,0,0,1,2.68-1,2.27,2.27,0,0,1,1.32.3,1,1,0,0,1,.4.88.89.89,0,0,1-.3.72,1.26,1.26,0,0,1-.84.26m8-4h-2.25v10.2h2.24l4.69-6.41v6.41h2.27V27h-2l-4.93,6.79Zm11.61,0h-2.3v10.2h2.3V33.12h4.46v4.09h2.3V27h-2.3v4h-4.46Zm-67,16.17h-2.3v10.2h2.3V49.29h4.46v4.09h2.3V43.18h-2.3v4H61.77ZM75.85,43a5.53,5.53,0,0,0-2.18.42A5.36,5.36,0,0,0,72,44.52a5,5,0,0,0-1.12,1.69,5.44,5.44,0,0,0-.4,2.07,5.52,5.52,0,0,0,.4,2.1A5,5,0,0,0,72,52.07a5.22,5.22,0,0,0,1.71,1.12,5.73,5.73,0,0,0,2.18.4,5.63,5.63,0,0,0,2.2-.42A5.23,5.23,0,0,0,79.76,52a5.15,5.15,0,0,0,1.11-1.69,5.39,5.39,0,0,0,.4-2.06,5.51,5.51,0,0,0-.4-2.11,5.14,5.14,0,0,0-1.1-1.68,5,5,0,0,0-1.71-1.12,5.89,5.89,0,0,0-2.21-.4m0,2a3.41,3.41,0,0,1,1.32.24,2.74,2.74,0,0,1,1,.68,3,3,0,0,1,.62,1,4,4,0,0,1,0,2.56,3,3,0,0,1-.61,1,2.85,2.85,0,0,1-1,.71,3.54,3.54,0,0,1-2.64,0,2.92,2.92,0,0,1-1-.69,3,3,0,0,1-.62-1,3.82,3.82,0,0,1-.21-1.29A3.76,3.76,0,0,1,72.92,47a3,3,0,0,1,.62-1,2.93,2.93,0,0,1,1-.7A3.23,3.23,0,0,1,75.85,45m11.84-1.83H83.18v10.2h4.93a5.27,5.27,0,0,0,1.69-.24A3.43,3.43,0,0,0,91,52.48a2.53,2.53,0,0,0,.68-1,3.17,3.17,0,0,0,.22-1.18,2.47,2.47,0,0,0-.45-1.47A2.3,2.3,0,0,0,90.25,48v-.14a1.74,1.74,0,0,0,.72-.75A2.41,2.41,0,0,0,91.23,46a2.48,2.48,0,0,0-.92-2,4.08,4.08,0,0,0-2.62-.75m-2.24,8.25V49.06h2.68a1.85,1.85,0,0,1,1.13.3,1,1,0,0,1,.39.88q0,1.2-1.51,1.2Zm0-4.23V45.13H87.7q1.31,0,1.31,1a1,1,0,0,1-.33.77,1.33,1.33,0,0,1-.9.28ZM98.69,43a5.52,5.52,0,0,0-2.18.42,5.34,5.34,0,0,0-1.71,1.13,5,5,0,0,0-1.12,1.69,5.46,5.46,0,0,0-.39,2.07,5.54,5.54,0,0,0,.39,2.1,5,5,0,0,0,1.12,1.69,5.21,5.21,0,0,0,1.71,1.12,5.72,5.72,0,0,0,2.18.4,5.63,5.63,0,0,0,2.2-.42A5.21,5.21,0,0,0,102.6,52a5.13,5.13,0,0,0,1.11-1.69,5.4,5.4,0,0,0,.4-2.06,5.53,5.53,0,0,0-.4-2.11,5.13,5.13,0,0,0-1.1-1.68,5,5,0,0,0-1.71-1.12,5.89,5.89,0,0,0-2.21-.4m0,2a3.41,3.41,0,0,1,1.32.24,2.75,2.75,0,0,1,1,.68,3,3,0,0,1,.62,1,4,4,0,0,1,0,2.56,3,3,0,0,1-.61,1,2.87,2.87,0,0,1-1,.71,3.55,3.55,0,0,1-2.64,0,2.94,2.94,0,0,1-1-.69,3,3,0,0,1-.62-1,3.85,3.85,0,0,1-.21-1.29A3.79,3.79,0,0,1,95.77,47a3.05,3.05,0,0,1,.62-1,2.91,2.91,0,0,1,1-.7A3.23,3.23,0,0,1,98.69,45M114,46l1.26-1.66a5.41,5.41,0,0,0-1.76-1,6.35,6.35,0,0,0-2.18-.36,6.21,6.21,0,0,0-2.34.42,5.26,5.26,0,0,0-1.77,1.15,5,5,0,0,0-1.12,1.71,5.53,5.53,0,0,0-.39,2.07,5.72,5.72,0,0,0,.4,2.18,4.74,4.74,0,0,0,2.8,2.73A6.63,6.63,0,0,0,115.48,52l-1.29-1.6a4.15,4.15,0,0,1-1.35.86,4.38,4.38,0,0,1-1.62.3,3.53,3.53,0,0,1-1.31-.23,3.05,3.05,0,0,1-1-.65,2.92,2.92,0,0,1-.66-1,3.82,3.82,0,0,1,0-2.62,3,3,0,0,1,.65-1,2.91,2.91,0,0,1,1-.67,3.67,3.67,0,0,1,1.35-.24,4.52,4.52,0,0,1,1.54.25A3.76,3.76,0,0,1,114,46m12-2.85h-9.24v2.07h3.49v8.13h2.27V45.25H126Zm6.38,0h-4.53v10.2h2.28V50.6h2.07a5.4,5.4,0,0,0,1.68-.25,4,4,0,0,0,1.35-.73,3.42,3.42,0,0,0,.9-1.17,3.65,3.65,0,0,0,.33-1.57,3.81,3.81,0,0,0-.29-1.51,3.2,3.2,0,0,0-.83-1.16,3.85,3.85,0,0,0-1.29-.75,4.89,4.89,0,0,0-1.66-.27m-2.25,5.39V45.22h2.16a1.93,1.93,0,0,1,1.39.45,1.61,1.61,0,0,1,.46,1.21,1.56,1.56,0,0,1-.52,1.23,2.09,2.09,0,0,1-1.43.46ZM143.35,43a5.53,5.53,0,0,0-2.18.42,5.35,5.35,0,0,0-1.71,1.13,5,5,0,0,0-1.12,1.69,5.44,5.44,0,0,0-.4,2.07,5.52,5.52,0,0,0,.4,2.1,5,5,0,0,0,1.12,1.69,5.22,5.22,0,0,0,1.71,1.12,5.73,5.73,0,0,0,2.18.4,5.63,5.63,0,0,0,2.2-.42A5.21,5.21,0,0,0,147.26,52a5.15,5.15,0,0,0,1.11-1.69,5.39,5.39,0,0,0,.4-2.06,5.51,5.51,0,0,0-.4-2.11,5.13,5.13,0,0,0-1.1-1.68,5,5,0,0,0-1.71-1.12,5.89,5.89,0,0,0-2.21-.4m0,2a3.41,3.41,0,0,1,1.32.24,2.73,2.73,0,0,1,1,.68,3,3,0,0,1,.62,1,4,4,0,0,1,0,2.56,3,3,0,0,1-.61,1,2.88,2.88,0,0,1-1,.71,3.55,3.55,0,0,1-2.64,0,2.92,2.92,0,0,1-1-.69,3,3,0,0,1-.62-1,3.82,3.82,0,0,1-.21-1.29,3.76,3.76,0,0,1,.21-1.28,3,3,0,0,1,.62-1,2.92,2.92,0,0,1,1-.7,3.23,3.23,0,0,1,1.32-.26m15-1.83h-7.63v10.2h7.88V51.33h-5.63V49.15h4.79v-2h-4.79V45.24h5.37Zm4.52,0h-2.25v10.2h2.25V49H164l3.1,4.35H170l-4.15-5.43,3.79-4.76h-2.82l-2.88,3.76-1.11.12Z" fill="#fff" fill-rule="evenodd"/></g></svg>