<svg version="1.1" id="Слой_1" xmlns="http://www.w3.org/2000/svg" xmlns:xlink="http://www.w3.org/1999/xlink" x="0" y="0" viewBox="0 0 57.6 57.6" xml:space="preserve"><style>.st1{clip-path:url(#SVGID_2_);fill:none;stroke:#bcc0c4;stroke-width:2;stroke-miterlimit:10}.st3{stroke-linejoin:round}.st3,.st4{clip-path:url(#SVGID_2_);fill:none;stroke:#00698b;stroke-width:2;stroke-miterlimit:10}</style><defs><path id="SVGID_1_" d="M0 0H57.6V57.6H0z"/></defs><clipPath id="SVGID_2_"><use xlink:href="#SVGID_1_" overflow="visible"/></clipPath><path d="M49.1,29.2c0,11-9,20-20,20s-20-9-20-20s9-20,20-20S49.1,18.1,49.1,29.2" clip-path="url(#SVGID_2_)" fill="#f2f2f2"/><path class="st1" d="M14.1,5.2C18.4,2.5,23.4,1,28.8,1c2.9,0,5.6,0.4,8.3,1.2"/><path class="st1" d="M5,43.2C2.5,39,1,34.1,1,28.8c0-5,1.3-9.6,3.6-13.6"/><path class="st1" d="M40.2,54.2c-3.5,1.6-7.3,2.4-11.4,2.4c-3.1,0-6-0.5-8.8-1.4"/><path class="st1" d="M55.3,20.2c0.9,2.7,1.4,5.6,1.4,8.6c0,5-1.3,9.6-3.6,13.6"/><path transform="rotate(-45.001 28.768 30.388)" clip-path="url(#SVGID_2_)" fill="#a2e8ff" d="M24.8 7.9H32.8V52.9H24.8z"/><path class="st3" d="M15.7 11.6L7.2 8.8 10 17.3 41.8 49.1 47.5 43.5z"/><path class="st4" d="M12.9 14.5L44.7 46.3"/><path class="st4" d="M41.8,49.1l2.8,2.8c0.8,0.8,2,0.8,2.8,0l2.8-2.8c0.8-0.8,0.8-2,0-2.8l-2.8-2.8"/><path d="M40.1,21.2c3.2,1.7,7.3,1.2,10-1.5c3.3-3.3,3.3-8.7,0-12c-3.3-3.3-8.7-3.3-12,0c-2.7,2.7-3.2,6.8-1.5,10 L7.3,46.9l3.5,3.5l1.4-1.4l3.5,3.5l2.8-2.8l-3.5-3.5l2.8-2.8l3.5,3.5l2.8-2.8l-3.5-3.5L40.1,21.2z" clip-path="url(#SVGID_2_)" fill="#fff"/><path class="st3" d="M40.1,21.2c3.2,1.7,7.3,1.2,10-1.5c3.3-3.3,3.3-8.7,0-12c-3.3-3.3-8.7-3.3-12,0c-2.7,2.7-3.2,6.8-1.5,10 L7.3,46.9l3.5,3.5l1.4-1.4l3.5,3.5l2.8-2.8l-3.5-3.5l2.8-2.8l3.5,3.5l2.8-2.8l-3.5-3.5L40.1,21.2z"/><ellipse transform="rotate(-45.001 44.057 13.686)" class="st3" cx="44.1" cy="13.7" rx="3.5" ry="3.5"/></svg>