<svg version="1.1" id="Слой_1" xmlns="http://www.w3.org/2000/svg" xmlns:xlink="http://www.w3.org/1999/xlink" x="0" y="0" viewBox="0 0 60 63" xml:space="preserve"><style>.st2,.st4{clip-path:url(#SVGID_2_);fill:none;stroke-width:2;stroke-miterlimit:10}.st2{stroke-linecap:round;stroke:#00698b}.st4{stroke:#bcc0c4}</style><defs><path id="SVGID_1_" d="M0 0H60V63H0z"/></defs><clipPath id="SVGID_2_"><use xlink:href="#SVGID_1_" overflow="visible"/></clipPath><path d="M0,24.5C0,38,11,49,24.5,49S49,38,49,24.5S38,0,24.5,0S0,11,0,24.5" clip-path="url(#SVGID_2_)" fill="#f2f2f2"/><path d="M37,18c0,4.4-3.6,8-8,8s-8-3.6-8-8s3.6-8,8-8S37,13.6,37,18" clip-path="url(#SVGID_2_)" fill="#a2e8ff"/><circle class="st2" cx="29" cy="18" r="8"/><path d="M29,24c-3.1,0-8.5,1.1-12,3.3c-3.5-2.9-8-3.3-8.7-2.4c-0.6,0.7,1.3,4,2.5,6.1c-1.8,1.2-3.2,3-4.2,5 c-1.1,0.5-2.5,0.8-4.5,0.8c-1.8,0-1,4.8,0.6,7.9c1.5,2.8,11,8.6,12.2,8.8l1,8.4h3l2.3-5c2.3,0.7,6,1,8.7,1c2.9,0,6-0.1,8.9-0.9 L42,62h3l1.9-9.7C50,49.4,52,45.7,52,41C52,31.5,40.7,24,29,24" clip-path="url(#SVGID_2_)" fill="#fff"/><path class="st2" d="M18.9,29.2c-3.5-4.5-9.7-5.3-10.6-4.3c-0.6,0.7,1.3,4,2.5,6.1c-1.8,1.2-3.2,3-4.2,5c-1.1,0.5-2.5,0.8-4.5,0.8 c-1.8,0-1,4.8,0.6,7.9c1.5,2.8,11,8.6,12.2,8.8l1,8.4h3l2.3-5c2.3,0.7,6,1,8.7,1c2.9,0,6-0.1,8.9-0.9L42,62h3l1.9-9.7 C50,49.4,52,45.7,52,41c0-9.5-11.3-17-23-17c-3.1,0-8.5,1.1-12,3.3"/><path class="st2" d="M12 36L14 36"/><path class="st2" d="M52,40l2.1-1.1c0.7-0.5,1.6-0.1,1.9,0.7c0.3,1,1.4,1.2,2.1,0.5l0.9-1"/><path class="st4" d="M10 14L8 16"/><path class="st4" d="M15 9L13 11"/><path class="st4" d="M13 14L15 16"/><path class="st4" d="M8 9L10 11"/><path class="st4" d="M55 24L55 26"/><path class="st4" d="M55 28L55 30"/><path class="st4" d="M54 27L52 27"/><path class="st4" d="M58 27L56 27"/><path class="st4" d="M48 14L48 16"/><path class="st4" d="M48 18L48 20"/><path class="st4" d="M47 17L45 17"/><path class="st4" d="M51 17L49 17"/></svg>